<svg xmlns="http://www.w3.org/2000/svg" viewBox="0 0 100 100">
  <!-- 棋盘背景 -->
  <rect x="10" y="10" width="80" height="80" rx="4" fill="#e9bb7d" />
  
  <!-- 棋盘线条 -->
  <g stroke="#000" stroke-width="1">
    <!-- 横线 -->
    <line x1="10" y1="25" x2="90" y2="25" />
    <line x1="10" y1="40" x2="90" y2="40" />
    <line x1="10" y1="55" x2="90" y2="55" />
    <line x1="10" y1="70" x2="90" y2="70" />
    <line x1="10" y1="85" x2="90" y2="85" />
    
    <!-- 竖线 -->
    <line x1="25" y1="10" x2="25" y2="90" />
    <line x1="40" y1="10" x2="40" y2="90" />
    <line x1="55" y1="10" x2="55" y2="90" />
    <line x1="70" y1="10" x2="70" y2="90" />
    <line x1="85" y1="10" x2="85" y2="90" />
  </g>
  
  <!-- 棋盘标记点 -->
  <circle cx="25" cy="25" r="2" fill="#000" />
  <circle cx="75" cy="25" r="2" fill="#000" />
  <circle cx="25" cy="75" r="2" fill="#000" />
  <circle cx="75" cy="75" r="2" fill="#000" />
  <circle cx="50" cy="50" r="2" fill="#000" />
  
  <!-- 棋子 -->
  <circle cx="40" cy="40" r="8" fill="#000" stroke="#000" stroke-width="1" />
  <circle cx="55" cy="55" r="8" fill="#fff" stroke="#000" stroke-width="1" />
  <circle cx="70" cy="40" r="8" fill="#fff" stroke="#000" stroke-width="1" />
  <circle cx="25" cy="55" r="8" fill="#000" stroke="#000" stroke-width="1" />
</svg>