<svg xmlns="http://www.w3.org/2000/svg" viewBox="0 0 100 100">
  <rect width="100" height="100" rx="10" fill="#f0d9b5" />
  <g transform="translate(10, 10)">
    <rect width="80" height="80" fill="none" stroke="#b58863" stroke-width="2" />
    <line x1="0" y1="10" x2="80" y2="10" stroke="#b58863" stroke-width="1" />
    <line x1="0" y1="20" x2="80" y2="20" stroke="#b58863" stroke-width="1" />
    <line x1="0" y1="30" x2="80" y2="30" stroke="#b58863" stroke-width="1" />
    <line x1="0" y1="40" x2="80" y2="40" stroke="#b58863" stroke-width="1" />
    <line x1="0" y1="50" x2="80" y2="50" stroke="#b58863" stroke-width="1" />
    <line x1="0" y1="60" x2="80" y2="60" stroke="#b58863" stroke-width="1" />
    <line x1="0" y1="70" x2="80" y2="70" stroke="#b58863" stroke-width="1" />
    <line x1="10" y1="0" x2="10" y2="80" stroke="#b58863" stroke-width="1" />
    <line x1="20" y1="0" x2="20" y2="80" stroke="#b58863" stroke-width="1" />
    <line x1="30" y1="0" x2="30" y2="80" stroke="#b58863" stroke-width="1" />
    <line x1="40" y1="0" x2="40" y2="80" stroke="#b58863" stroke-width="1" />
    <line x1="50" y1="0" x2="50" y2="80" stroke="#b58863" stroke-width="1" />
    <line x1="60" y1="0" x2="60" y2="80" stroke="#b58863" stroke-width="1" />
    <line x1="70" y1="0" x2="70" y2="80" stroke="#b58863" stroke-width="1" />
    <circle cx="40" cy="40" r="8" fill="#000" />
    <circle cx="20" cy="60" r="8" fill="#fff" stroke="#000" stroke-width="1" />
    <circle cx="60" cy="20" r="8" fill="#000" />
  </g>
</svg>